<?xml version="1.0" encoding="utf-8"?>
<!-- Generator: Adobe Illustrator 21.0.0, SVG Export Plug-In . SVG Version: 6.00 Build 0)  -->
<svg version="1.1" id="Layer_1" xmlns="http://www.w3.org/2000/svg" xmlns:xlink="http://www.w3.org/1999/xlink" x="0px" y="0px"
	 viewBox="0 0 512 512" style="enable-background:new 0 0 512 512;" xml:space="preserve">
<style type="text/css">
	.st0{fill:#74B9FF;}
	.st1{fill:#FFFFFF;}
</style>
<circle class="st0" cx="256" cy="256" r="240"/>
<g id="yH0h5y.tif">
	<g>
		<path class="st1" d="M112.1,261.1c2.1-6.2,6-10.3,12.8-10.8c1.3-0.1,2.8-0.2,3.9,0.3c2.7,1.3,4.2,0,5.9-1.7
			c12.9-13,25.9-26,38.9-38.9c0.7-0.7,1.3-1.3,1.9-2c-5.4-9-5.8-20.6,3.5-29.7c6.3-6.1,17.3-9.4,28.7-2.6c0.6-0.5,1.2-1,1.8-1.6
			c13.4-13.4,26.9-26.9,40.2-40.4c0.7-0.7,1.4-2.3,1.1-3.2c-2.2-8.2,1.2-15,9.2-17.8c0.3-0.1,0.7-0.3,1-0.5c1.9,0,3.7,0,5.6,0
			c0.2,0.1,0.5,0.3,0.7,0.4c8,2.8,11.9,9.9,9.6,17.3c-2.5,8-11.2,11.5-17.7,9c-0.8-0.3-2.3,0.4-3,1.1c-7.4,7.2-14.6,14.5-21.9,21.8
			c-0.5,0.5-0.9,1-1.4,1.7c47-18.1,90.9-12.8,132.4,16.1c2.1-2.3,4.3-4.6,6.5-6.9c2.7-2.7,4.9-2.7,7.7,0c4.8,4.7,9.6,9.5,14.3,14.3
			c2.1,2.1,4,4.4,6,6.6c0,0.9,0,1.9,0,2.8c-7,7.1-14,14.3-21.1,21.3c-1.9,1.9-4.4,1.8-6.3-0.1c-6.6-6.5-13.2-13-19.7-19.6
			c-1.9-2-1.8-4.4,0.1-6.5c1.7-1.8,3.5-3.6,5.3-5.4c-40.1-30.8-100.1-32.5-142.7-2.2c4.4,10.5,3.5,20.2-5.3,28.1
			c-7.8,7-16.8,7.5-26.2,3.3c-28.2,37.9-31.2,99.1,2.4,143.2c1.7-1.9,3.2-3.8,5-5.5c2.4-2.3,4.8-2.3,7.2,0
			c6.4,6.3,12.7,12.7,19,19.2c2,2.1,2.2,4.5,0.2,6.5c-7,7.1-14.2,14.1-21.3,21.1c-0.9,0-1.9,0-2.8,0c-0.8-0.6-1.7-1.1-2.4-1.9
			c-6.2-6.2-12.5-12.4-18.7-18.7c-2.6-2.6-2.5-4.9,0.2-7.5c2.3-2.3,4.8-4.4,7-6.5c-29-41.7-34.2-85.6-16.4-132.4
			c-7.8,7.5-15.3,15.2-22.9,22.8c-1.5,1.5-1.8,2.6-1.2,4.6c2,7.1-1.9,14.2-8.8,16.6c-6.8,2.3-14.1-0.9-17.1-7.5
			c-0.3-0.7-0.7-1.5-1.1-2.2C112.1,265.2,112.1,263.1,112.1,261.1z M208.9,194.9c0-7.8-6.3-14.2-14.1-14.1
			c-7.7,0-14.1,6.6-14.1,14.2c0.1,7.7,6.3,13.9,14,13.9C202.7,209,208.9,202.8,208.9,194.9z M194.7,388.1c4.2-4.2,8.6-8.6,12.6-12.6
			c-4.1-4.1-8.4-8.4-12.4-12.4c-4.1,4.1-8.4,8.4-12.6,12.6C186.4,379.8,190.8,384.1,194.7,388.1z M375.5,207.5
			c4.3-4.3,8.6-8.6,12.7-12.7c-4.1-4.1-8.4-8.4-12.5-12.5c-4.1,4.1-8.5,8.4-12.7,12.6C367.1,199,371.4,203.3,375.5,207.5z
			 M268.6,126.3c0.2-2.6-1.8-5-4.4-5.2c-2.5-0.2-4.8,1.7-5,4.2c-0.3,2.7,1.6,5,4.2,5.3C266,130.9,268.4,128.9,268.6,126.3z
			 M126.3,268.3c2.5-0.1,4.4-2,4.3-4.5c0-2.7-2.2-4.7-5-4.6c-2.5,0.1-4.2,1.8-4.2,4.3C121.5,266.3,123.6,268.4,126.3,268.3z"/>
		<path class="st1" d="M324,399.9c-1.1-1.3-2.5-2.6-3.3-4.1c-4.4-8.5-8.5-17.1-12.9-25.5c-0.7-1.4-2.2-2.8-3.7-3.3
			c-14.8-5.8-29.6-11.5-44.5-17.1c-2.4-0.9-4-2.3-5-4.8c-15-37.8-30.1-75.5-45.3-113.3c-1.2-3-0.9-5.3,1.5-7.5
			c4.6-4.4,9.1-8.9,13.5-13.5c2-2.1,4.1-2.6,6.8-1.5c38.1,15.3,76.2,30.5,114.4,45.7c2.3,0.9,3.5,2.6,4.3,4.8
			c5.7,14.9,11.3,29.7,17.1,44.5c0.6,1.5,1.9,3,3.3,3.7c8.5,4.4,17,8.6,25.5,12.9c1.5,0.8,2.7,2.2,4.1,3.3c0,0.9,0,1.9,0,2.8
			c-0.9,1.1-1.7,2.2-2.7,3.2c-22.4,22.4-44.8,44.8-67.2,67.2c-1,1-2.1,1.8-3.2,2.7C325.9,399.9,325,399.9,324,399.9z M220.5,227.4
			c-1.7,1.1-2.4,2.2-1.5,4.4c14.4,35.7,28.7,71.5,43,107.3c0.7,1.7,1.6,2.7,3.4,3.3c13.7,5.2,27.4,10.5,41.1,15.8
			c1.9,0.7,3,0.4,4.4-0.9c15.4-15.5,30.9-31,46.5-46.5c1.4-1.4,1.7-2.5,0.9-4.4c-5.3-13.5-10.5-27-15.6-40.6c-0.8-2.1-2-3.3-4.1-4.1
			c-35.4-14.1-70.9-28.2-106.3-42.5c-2.4-1-3.8-0.8-4.7,1.1c19.4,19.4,38.6,38.6,57.9,57.9c14.3-8.8,28.7-3.2,35.6,5.7
			c8,10.3,7.5,24.4-1.1,34.1c-8.4,9.5-22.7,11.5-33.5,4.8c-5.5-3.4-9.3-8.1-11.2-14.2c-2.7-8.3-1.3-16.2,3.2-23.3
			C259,265.9,239.8,246.7,220.5,227.4z M387.4,326.6c-7.4-3.7-14.8-7.4-21.8-10.9c-16.8,16.7-33.3,33.3-50,49.9
			c3.6,7.2,7.3,14.5,10.9,21.8C347,367.1,367.1,347,387.4,326.6z M300.2,282.9c-9.8,0-17.4,7.8-17.4,17.5c0,9.7,8,17.5,17.6,17.4
			c9.5-0.1,17.3-8,17.3-17.5C317.8,290.7,309.9,282.8,300.2,282.9z"/>
	</g>
</g>
</svg>
