<?xml version="1.0" encoding="utf-8"?>
<!-- Generator: Adobe Illustrator 21.0.0, SVG Export Plug-In . SVG Version: 6.00 Build 0)  -->
<svg version="1.1" id="Layer_1" xmlns="http://www.w3.org/2000/svg" xmlns:xlink="http://www.w3.org/1999/xlink" x="0px" y="0px"
	 viewBox="0 0 512 512" style="enable-background:new 0 0 512 512;" xml:space="preserve">
<style type="text/css">
	.st0{fill:#A29BFE;}
	.st1{fill:#FFFFFF;}
</style>
<circle class="st0" cx="256" cy="256" r="240"/>
<g id="FypCmk.tif">
	<g>
		<path class="st1" d="M204.3,401.6c-0.9-1.4-2.3-2.8-2.6-4.4c-0.4-2.4,1.8-4.1,4.6-4.2c4.7,0,9.4,0,14.9,0
			c1.1-11.9,2.2-23.7,3.3-35.8c-1.6,0-2.6,0-3.6,0c-9.9,0-19.7,0-29.6,0c-0.8,0-1.5,0-2.3,0c-2.5-0.2-4.1-1.8-4.2-4.2
			c0-2.4,1.6-4.1,4.3-4.3c0.8-0.1,1.7,0,2.6,0c62.9,0,125.9,0,188.8,0c9,0,12.6-3.6,12.6-12.5c0-5.1,0-10.2,0-15.4
			c-91.5,0-182.6,0-273.9,0c0,6.6-0.4,13.1,0.1,19.6c0.4,5,4.9,8.3,10.3,8.3c12.4,0.1,24.8,0,37.2,0c0.9,0,1.9-0.1,2.8,0.1
			c2.2,0.6,3.4,2,3.4,4.3c-0.1,2.1-1.4,3.5-3.4,4c-0.9,0.2-1.9,0.1-2.8,0.1c-11.9,0-23.9,0-35.8,0c-12.7,0-20.4-7.7-20.4-20.3
			c0-55.2,0-110.3,0-165.5c0-12.7,7.7-20.4,20.3-20.4c39.9,0,79.8,0,119.7,0c1.1,0,2.3,0,4.2,0c-2.1-2.1-3.6-3.7-5.1-5.2
			c-3.8-3.9-3.9-7.7,0-11.7c2.9-2.9,5.7-5.8,8.7-8.6c3.4-3.3,7.8-3.7,10.7,0c3.8,4.7,7.4,6.1,12.6,2.5c1.4-1,3.3-1.3,5.2-2
			c0-2.4,0-4.9,0-7.3c0.1-5.4,2.9-8.3,8.2-8.3c4.1,0,8.2-0.1,12.2,0c4.7,0.1,8.2,3,7.6,7.6c-0.8,6.4,1.5,9.4,7.6,11
			c4.9,1.4,4.8,2,8.4-1.7c0.8-0.8,1.6-1.6,2.4-2.4c3.1-2.6,6.8-2.7,9.8,0.1c3.5,3.2,6.8,6.6,10,10.1c2.8,3,2.7,7-0.2,10
			c-1.7,1.8-3.6,3.4-5.4,5c0.1,0.2,0.2,0.5,0.3,0.7c1,0.1,1.9,0.2,2.9,0.2c9.3,0,18.6,0,27.9,0c13.6,0,18.3,3.2,23,15.7
			c0,58.4,0,116.8,0,175.2c-5.2,12.6-9.4,15.4-23.2,15.4c-29,0-58,0-86.9,0c-1.1,0-2.2,0-3.9,0c1.1,12.2,2.2,23.9,3.2,35.6
			c0.9,0,1,0.1,1,0.1c4.6,0,9.3,0.1,13.9,0.1c2.8,0,5.1,1.8,4.6,4.2c-0.3,1.6-1.7,2.9-2.6,4.4C273.3,401.6,238.8,401.6,204.3,401.6z
			 M315.1,228.8c0,2.3,0,4.8,0,7.2c-0.1,5.3-2.8,8.1-8.1,8.1c-3.5,0-7,0-10.5,0c-7.3,0-9.6-2.4-9.6-9.7c0-5.8-0.3-5.2-5.2-8
			c-5.5-3.1-8.9-2.2-12.7,2.6c-3,3.7-7.3,3.4-10.7,0.1c-3-2.9-5.9-5.8-8.9-8.8c-3.6-3.7-3.7-7.6,0-11.2c1.9-1.8,4-3.4,6-5.1
			c-1.4-2.1-2.4-3.5-2.7-5.1c-1.2-6.3-4.6-8.4-11-7.6c-4.5,0.6-7.2-2.6-7.5-7.1c-0.1-1.6,0-3.1,0-4.9c-1.4,0-2.3,0-3.3,0
			c-29.9,0-59.9,0-89.8,0c-4.1,0-4.3,0.2-4.3,4.4c0,41.7,0,83.4,0,125.1c0,1,0,2,0,3.2c79.7,0,159,0,238.6,0c0-1.5,0-2.7,0-3.9
			c0-40.8,0-81.7,0-122.5c0-6.6-0.3-6.9-7-6.1c-0.1,0-0.2,0.1-0.5,0.4c0,1.1,0,2.4,0,3.7c-0.2,5.2-2.8,7.8-8,7.9c-2,0-4-0.1-6,0.1
			c-0.8,0.1-1.9,0.8-2.2,1.5c-1.5,3.4-2.8,7-4.5,11.2c1.7,1.5,3.8,3.2,5.7,5.2c3.1,3.2,3.2,7.2,0.1,10.4c-3.1,3.3-6.3,6.5-9.7,9.6
			c-3.1,3-7,2.9-10.2,0c-1.6-1.5-3-3.2-4.7-4.5c-0.7-0.5-2-0.8-2.8-0.6C322.2,225.6,318.9,227.1,315.1,228.8z M263.8,222.6
			c1.9-2,3.6-4,5.4-5.7c2.7-2.6,5.4-2.9,8.8-1.4c3.9,1.7,7.8,3.4,11.8,4.9c3.6,1.4,5.4,3.6,5.4,7.4c0,2.5,0,5.1,0,7.6
			c3.9,0,7.4,0,11.2,0c0-2.7,0-5.1,0-7.6c0.1-3.9,1.8-6.1,5.4-7.4c3.9-1.5,7.7-3,11.5-4.8c3.7-1.7,6.4-1.4,9.3,1.4
			c1.8,1.8,3.5,3.6,4.9,5.1c2.9-2.7,5.4-5.2,8.1-7.8c-1.6-1.6-3.3-3.2-5-4.9c-3.1-3.1-3.4-5.9-1.5-9.8c1.6-3.5,3.1-7.1,4.4-10.7
			c1.5-4.2,3.6-6,8.2-6c2.3,0,4.7,0,7.1,0c0-3.9,0-7.3,0-11c-2.6,0-5.1,0-7.5,0c-4-0.1-6.2-1.9-7.6-5.6c-1.5-3.9-3.1-7.7-4.8-11.5
			c-1.6-3.5-1.3-6.4,1.4-9.1c1.8-1.8,3.7-3.5,5.6-5.3c-2.9-2.8-5.4-5.2-8.4-8.1c-1.5,1.6-3,3.5-4.6,5.1c-3.2,3.2-5.9,3.5-10,1.5
			c-3.5-1.7-7.1-3.2-10.7-4.4c-4-1.4-5.7-3.5-5.8-7.7c0-2.5,0-5,0-7.5c-3.9,0-7.4,0-10.8,0c-0.2,0.3-0.3,0.5-0.3,0.6
			c0,2.3,0,4.5-0.1,6.8c-0.1,4.2-1.8,6.3-5.7,7.8c-3.6,1.3-7.2,2.8-10.7,4.4c-4.2,2-6.9,1.7-10.2-1.6c-1.6-1.6-3.2-3.4-4.2-4.5
			c-3,2.9-5.6,5.3-8.4,7.9c0.8,0.8,1.7,1.6,2.6,2.4c0.9,0.9,1.8,1.7,2.6,2.6c2.6,2.8,3,5.7,1.4,9.1c-1.7,3.8-3.4,7.6-4.8,11.5
			c-1.4,3.9-3.7,5.6-7.8,5.7c-2.4,0-4.7,0-7.2,0c0,3.7,0,7.3,0,10.7c0.4,0.1,0.6,0.3,0.8,0.3c2.2,0,4.4,0,6.5,0.1
			c4.2,0.1,6.4,1.8,7.8,5.7c1.4,3.8,3,7.5,4.7,11.2c1.7,3.6,1.4,6.5-1.4,9.3c-1.8,1.8-3.8,3.3-5.7,4.9
			C258.6,217.2,261,219.7,263.8,222.6z M250.6,159.7c-0.9-0.1-1.7-0.2-2.5-0.2c-39.1,0-78.3,0-117.4,0c-7.8,0-11.7,3.9-11.7,11.7
			c0,45.9,0,91.7,0,137.6c0,1,0.1,2,0.1,3c3.1,0,6,0,9.1,0c0-1.5,0-2.7,0-3.9c0-41.7,0-83.4,0-125.1c0-8.1,4.1-12.2,12.3-12.2
			c30,0,60.1,0,90.1,0c1.1,0,2.2,0,3.2,0c1.8-6.1,3.5-7.4,9.6-7.4c1.1,0,2.3-0.1,3.4,0C249.5,163.7,250.7,162.5,250.6,159.7z
			 M229.8,392.8c17.4,0,35,0,52.3,0c-1-11.9-2.1-23.6-3.1-35.4c-15.4,0-30.8,0-46.1,0C231.9,369.3,230.9,381.1,229.8,392.8z
			 M368.1,170.7c1.3,0,2.6,0,3.8,0c7.7,0,11.9,4.2,11.9,12c0,41.9,0,83.8,0,125.7c0,1.2,0,2.4,0,3.6c3.3,0,6.2,0,9.2,0
			c0-1.2,0-2.1,0-3.1c0-45.8,0-91.5,0-137.3c0-8-3.9-11.9-11.8-11.9c-9.2,0-18.4,0-27.6,0c-0.8,0-1.6,0.1-2.4,0.2
			c-0.1,2.9,1.2,3.9,3.8,3.5c1-0.1,2.1,0,3.1,0C364.6,163.3,366.2,164.4,368.1,170.7z"/>
		<path class="st1" d="M255.9,330.4c3.1,0,6.2,0,9.4,0c2.9,0.1,4.7,1.7,4.7,4.2c0,2.4-1.8,4.3-4.6,4.3c-6.2,0.1-12.5,0.1-18.7,0
			c-2.8,0-4.6-1.9-4.6-4.4c0.1-2.5,1.8-4.1,4.8-4.1C249.8,330.4,252.9,330.4,255.9,330.4z"/>
		<path class="st1" d="M209.4,289.8c0,1.8,0,3.5,0,5.2c-0.1,4.3-2.6,6.9-6.9,7c-3.3,0.1-6.6,0.1-9.9,0c-4.1-0.2-6.9-2.7-6.5-6.6
			c0.4-4.5-1.2-6.8-5.5-7.7c-0.9-0.2-1.7-0.8-3.3-1.8c-1.2,1.5-2.2,3.1-3.5,4.4c-2.9,2.8-6.4,2.8-9.4,0c-2.4-2.3-4.7-4.6-7-7
			c-3-3.1-3-6.7,0-9.8c1.2-1.2,2.6-2.2,3.7-3.3c-1.1-2.8-1.9-5.1-3-7.2c-0.3-0.6-1.2-1.1-1.9-1.2c-0.8-0.2-1.7-0.1-2.5-0.1
			c-5.9,0-8.2-2.3-8.3-8.2c0-2.7-0.1-5.5,0-8.2c0.2-4.7,2.6-7.4,7.3-7.1c3.7,0.3,5.4-0.9,6.7-4.4c1.1-2.9,1.1-4.5-1.3-6.7
			c-4.4-4-4.2-7.3,0-11.6c2-2,4-4.1,6-6c3.1-2.9,6.8-3.1,9.5,0.1c2.7,3.2,5.1,3.6,8.8,1.7c2.4-1.2,3.4-2.2,3.3-4.9
			c-0.2-6.7,2-8.7,8.8-8.7c2.6,0,5.1-0.1,7.7,0c4.3,0.1,7.3,2.7,6.9,6.9c-0.4,4.3,1.2,6,5.1,7.4c2.6,0.9,4,0.7,5.8-1.2
			c4.5-4.7,7.6-4.6,12.2,0c1.9,1.9,3.8,3.7,5.6,5.6c3,3.2,3.2,6.9-0.1,9.7c-3.1,2.7-3.5,4.9-1.7,8.6c1.2,2.5,2.3,3.5,5.1,3.4
			c6.3-0.2,8.6,2.1,8.6,8.4c0,2.7,0,5.3,0,8c-0.1,4.5-2.6,7.4-7,7.1c-4.2-0.3-5.9,1.2-7.2,5c-1,2.7-0.8,4.1,1.3,6
			c4.7,4.3,4.5,7.4,0,12c-1.9,1.9-3.7,3.8-5.6,5.6c-3.2,3.1-6.9,3.4-9.7,0.1c-2.8-3.2-5.3-3.9-8.8-1.6
			C211.7,289.1,210.5,289.3,209.4,289.8z M226,216.4c-1.2,1.3-2.1,2.4-3.2,3.5c-2.7,2.6-5.2,2.9-8.5,1.3c-2.7-1.3-5.5-2.4-8.4-3.5
			c-3.3-1.2-5-3.2-5-6.7c0-1.6,0-3.2,0-4.8c-2.3,0-4.2,0-6.5,0c0,1.5,0,2.8,0,4.1c-0.1,4.4-1.6,6.3-5.7,7.7
			c-2.7,0.9-5.3,2.1-7.8,3.3c-3.2,1.5-5.8,1.2-8.3-1.2c-1.1-1.1-2.1-2.4-3.6-4.2c-1,1.4-1.6,2.3-2.3,3.1c-0.6,0.8-1.3,1.5-2.3,2.5
			c1.2,1,2.3,1.8,3.2,2.7c3,3.1,3.3,5.4,1.4,9.2c-1.2,2.5-2.3,5.2-3.3,7.8c-1.3,3.6-3.2,5.1-6.9,5.2c-1.5,0-3,0-4.6,0
			c0,2.3,0,4.3,0,6.6c1.5,0,2.8,0,4.2,0c4.3,0.1,6,1.5,7.5,5.5c0.9,2.7,2.1,5.3,3.3,7.8c1.6,3.4,1.4,5.8-1.3,8.5
			c-1.1,1.1-2.5,1.9-3.8,2.8c0.4,0.2,0.7,0.4,1.1,0.6c1.4,1.4,2.7,2.8,4.6,4.8c0.7-1,1.4-2.1,2.2-2.9c3.4-3.5,5.5-3.7,9.9-1.5
			c2.4,1.2,4.9,2.1,7.3,3c3.7,1.3,5.2,3.2,5.3,7.1c0.1,1.5,0,3,0,4.7c1.3,0,2.3,0,3.2,0c1,0,2,0,3.3,0c0-1.9,0-3.5,0-5.1
			c0.1-3.4,1.7-5.4,4.8-6.6c3-1.1,6-2.3,8.9-3.7c2.9-1.4,5.5-1.1,7.8,1.1c1.2,1.2,2.2,2.6,3.1,3.7c1.9-1.9,3.3-3.4,5.2-5.3
			c-0.9-0.7-2-1.5-3-2.4c-3-3-3.3-5.4-1.4-9.2c1.2-2.5,2.2-5.2,3.2-7.9c1.3-3.6,3.1-5,6.9-5.1c1.6,0,3.1,0,4.6,0c0-2.4,0-4.4,0-6.6
			c-1.5,0-2.8,0-4.1,0c-4.4-0.1-6.2-1.5-7.6-5.7c-0.8-2.4-1.8-4.8-2.9-7.1c-2-4.1-1.8-6.4,1.6-9.6c0.9-0.9,2.3-1.4,3.4-2
			c-0.3-0.3-0.7-0.6-1-1C229,219.6,227.6,218.1,226,216.4z"/>
		<path class="st1" d="M267.9,178.5c0-7.7,1.7-13.5,5.1-18.8c1.7-2.7,3.9-3.5,6.2-2.2c2.3,1.3,2.7,3.8,1.1,6.7
			c-9.2,16.1-0.4,34.8,17.8,37.5c13,1.9,25.5-7.9,27.3-21.2c1.7-13.1-7.9-25.9-20.8-27.3c-3.1-0.3-6.4,0-9.6,0.4
			c-3.3,0.4-5.5-0.5-6-3.1c-0.5-2.7,0.9-4.5,4.2-5.3c18.1-4.4,36.7,7.4,40.2,25.5c3.7,19.1-8.9,36.8-28,39.4
			C285.5,212.8,267.8,197.2,267.9,178.5z"/>
		<path class="st1" d="M318.1,177.3c0,9.5-7.6,17.2-17.1,17.2c-9.6,0-17.3-7.8-17.2-17.4c0.1-9.5,7.8-17.1,17.2-17.1
			C310.5,160.2,318.1,167.8,318.1,177.3z M309.5,177.3c0-4.7-3.9-8.7-8.6-8.7c-4.7,0-8.6,4-8.6,8.7c0,4.8,3.9,8.7,8.6,8.7
			C305.7,186,309.5,182,309.5,177.3z"/>
		<path class="st1" d="M175,249.7c0-12.4,10.1-22.6,22.5-22.6c12.4,0,22.6,10.2,22.6,22.6c0,12.4-10.2,22.6-22.6,22.6
			C185.2,272.4,175,262.1,175,249.7z M211.6,249.6c-0.1-7.7-6.6-14.1-14.3-13.9c-7.6,0.1-13.8,6.4-13.8,14.1
			c0,7.8,6.3,14.1,14.1,14.1C205.3,263.7,211.7,257.3,211.6,249.6z"/>
	</g>
</g>
</svg>
