<?xml version="1.0" encoding="utf-8"?>
<!-- Generator: Adobe Illustrator 21.0.0, SVG Export Plug-In . SVG Version: 6.00 Build 0)  -->
<svg version="1.1" id="Layer_1" xmlns="http://www.w3.org/2000/svg" xmlns:xlink="http://www.w3.org/1999/xlink" x="0px" y="0px"
	 viewBox="0 0 512 512" style="enable-background:new 0 0 512 512;" xml:space="preserve">
<style type="text/css">
	.st0{fill:#FAB1A0;}
	.st1{fill:#FFFFFF;}
</style>
<circle class="st0" cx="256" cy="256" r="240"/>
<g id="frBWmy.tif">
	<g>
		<path class="st1" d="M108.3,381.2c0-83.5,0-167,0-250.5c0.2-0.6,0.4-1.2,0.6-1.9c1.8-7.5,5.9-13.4,12.6-17c3-1.7,6.6-2.4,9.9-3.6
			c56,0,112,0,167.9,0c0.1,0.1,0.3,0.3,0.4,0.4c15,3.7,22.1,12.8,22.2,28.2c0,21.7,0,43.4,0,65.2c0,1.1,0,2.2,0,3.6
			c1.5,0,2.7,0,3.8,0c19.1,0,38.3,0,57.4,0c10.3,0,17.4,5.5,20.2,15.5c0.1,0.5,0.3,0.9,0.5,1.3c0,54.8,0,109.7,0,164.5
			c-1.7,3.3-3,6.8-5.1,9.8c-2.9,4.1-7.5,5.7-12.2,6.9c-25.6,0-51.2,0-76.8,0c-3.5-1.8-6.9-1.7-10.4,0c-41.9,0-83.9,0-125.8,0
			c-1.7-1.6-3.5-3.1-2.5-5.8c1.1-2.8,3.4-3,5.9-2.9c0.7,0,1.3,0,2,0c37.8,0,75.6,0,113.4,0c1.1,0,2.2,0,3.6,0
			c-5.8-10.4-1.9-21.5-3.6-31.9c-58.5,0-116.9,0-175.4,0c0,4.7,0,9.2,0,13.7c0.1,10.7,7.5,18.1,18.2,18.2c6.2,0,12.3,0,18.5,0
			c2.5,0,4.7,0.4,5.5,3.1c0.8,2.7-0.8,4.3-2.9,5.6c-8.3,0-16.5,0-24.8,0c-0.7-0.2-1.5-0.4-2.2-0.6c-9.9-2.4-16.6-8.4-19.8-18.1
			C109,383.8,108.6,382.5,108.3,381.2z M117.1,157.9c0,65.6,0,130.9,0,196.3c58.5,0,116.9,0,175.6,0c0-1.4,0-2.6,0-3.8
			c0-29.1,0-58.3,0-87.4c0-4.7,1.3-6.8,4.3-6.9c3,0,4.4,2.1,4.4,6.8c0,33.8,0,67.5,0,101.3c0,1.2,0,2.4,0,3.8c31.4,0,62.5,0,93.8,0
			c0-1.2,0-2.3,0-3.3c0-45.7,0-91.4,0-137.1c0-0.9,0-1.7,0-2.6c-0.3-4.8-3.4-9.3-8.1-10.1c-4.2-0.7-8.6-0.4-12.9-0.5
			c-1.4,2.6-2.8,5.1-4.2,7.7c-0.2,0.3-0.3,0.7-0.5,1c-2.4,5-6.4,7.5-11.9,7.5c-5.9,0-11.7-0.1-17.6,0c-6.3,0.1-11.2-2.4-13-8.4
			c-2.1-7.1-6.3-8.7-13.1-8.1c-7.8,0.7-12.2,4.6-12.3,12.5c0,4.3,0.1,8.7-0.1,13c-0.1,2.9-2,4.8-4.4,4.7c-2.3-0.1-4.1-1.9-4.2-4.6
			c-0.1-5.3-0.2-10.6,0.1-15.9c0.5-8.5,6.5-15.4,14.7-17.5c1.7-0.4,3.6-0.6,5.4-0.9c0-15.9,0-31.7,0-47.5
			C247.6,157.9,182.4,157.9,117.1,157.9z M313.2,149c0-4.5,0-8.7,0-12.9c0-12.1-7.1-19.1-19.2-19.1c-37.8,0-75.6,0-113.3,0
			c-15.4,0-30.8,0-46.1,0c-8.6,0-15.9,5.7-17.1,14.2c-0.8,5.8-0.2,11.8-0.2,17.8C182.4,149,247.6,149,313.2,149z M394.9,376.8
			c-1.2,0-2.4,0-3.5,0c-27.7,0-55.4,0-83,0c-7.6,0-7.6,0-7,7.6c0.5,6,4.9,10.6,10.9,10.6c23.9,0.1,47.9,0.1,71.8,0
			c5.4,0,9.9-3.8,10.7-9.1C395.2,383,394.9,380,394.9,376.8z M332.5,214.5c0.9,2,1.5,3.8,2.6,5.2c0.8,1.1,2.4,2.1,3.6,2.2
			c6.3,0.2,12.7,0.2,19,0c1.1,0,2.6-0.9,3.3-1.8c1.2-1.6,1.8-3.5,2.8-5.6C353.3,214.5,343.2,214.5,332.5,214.5z"/>
		<path class="st1" d="M215.1,383.3c-3.1,0-6.2,0.1-9.2,0c-3.2-0.1-5-1.8-4.9-4.4c0-2.6,1.7-4.2,4.8-4.2c6.2-0.1,12.5-0.1,18.7,0
			c2.9,0,4.8,1.9,4.7,4.3c-0.1,2.3-1.9,4.1-4.6,4.2C221.5,383.4,218.3,383.3,215.1,383.3C215.1,383.3,215.1,383.3,215.1,383.3z"/>
		<path class="st1" d="M156.5,259.2c-1.5-1.3-3.4-2.1-3.7-3.4c-0.4-1.5,0-3.7,0.9-4.9c4-5.1,8.4-10,12.6-15
			c12.2-14.3,24.5-28.6,36.7-43c1.7-2,3.5-3,6-1.9c2.7,1.2,3.2,4.4,1,7.1c-4.4,5.3-9,10.5-13.5,15.8c-11.9,14-23.8,27.9-35.8,41.9
			C159.7,257,158.2,257.8,156.5,259.2z"/>
		<path class="st1" d="M259.5,321.9c-1.2-1-2.8-1.7-3.3-2.9c-0.5-1.2-0.5-3.3,0.3-4.2c4.6-5.5,9.4-10.9,14.3-16.2
			c1.7-1.8,3.9-1.6,5.7,0c1.8,1.6,2.1,3.8,0.6,5.7c-4.6,5.4-9.3,10.7-14.1,15.9C262.2,320.9,261,321.2,259.5,321.9z"/>
		<path class="st1" d="M175.1,207.3c-0.9,1.5-1.4,2.7-2.2,3.6c-4.2,4.8-8.5,9.6-12.8,14.4c-2.1,2.3-4.7,2.5-6.6,0.7
			c-1.9-1.8-1.9-4.1,0.1-6.4c4.3-4.9,8.6-9.8,13-14.6c1.4-1.6,3.3-2.4,5.1-1.3C173.1,204.4,174,206,175.1,207.3z"/>
	</g>
</g>
</svg>
