<?xml version="1.0" encoding="utf-8"?>
<!-- Generator: Adobe Illustrator 21.0.0, SVG Export Plug-In . SVG Version: 6.00 Build 0)  -->
<svg version="1.1" id="Layer_1" xmlns="http://www.w3.org/2000/svg" xmlns:xlink="http://www.w3.org/1999/xlink" x="0px" y="0px"
	 viewBox="0 0 512 512" style="enable-background:new 0 0 512 512;" xml:space="preserve">
<style type="text/css">
	.st0{fill:#81ECEC;}
	.st1{fill:#FFFFFF;}
</style>
<circle class="st0" cx="256" cy="256" r="240"/>
<g id="_x39_gxmZl.tif">
	<g>
		<path class="st1" d="M112.9,338.9c0-57.4,0-114.7,0-172.1c0.2-0.4,0.4-0.8,0.5-1.3c2.4-7.9,7.9-12.3,16.2-12.5
			c3.2-0.1,6.4,0,9.7,0c4.1,0,8.3,0,12.7,0c0-1.4,0-2.4,0-3.4c0-8.2,0-16.5,0-24.7c0-9.1,5.3-14.3,14.2-14.3c59.4,0,118.9,0,178.3,0
			c9,0,14.3,5.3,14.3,14.3c0,8.3,0,16.7,0,25c0,1,0.1,2,0.1,2.8c0.4,0.2,0.5,0.2,0.6,0.2c1.9,0,3.8,0.1,5.7,0.1
			c3.2,0.1,5,1.5,5.1,4.1c0.1,2.7-1.8,4.4-5.1,4.5c-2,0.1-4.1,0-6.2,0c0,43.7,0,87,0,130.4c10.5,0,20.9,0,31.3,0
			c0.1-0.8,0.2-1.5,0.2-2.1c0-39.8,0-79.7,0-119.5c0-5.3-2.4-7.8-7.7-8.7c-2.9-0.5-4.4-2.2-4.2-4.7c0.2-2.5,2-3.9,5-3.8
			c8.9,0.2,15.5,7.6,15.5,17.6c0,54.8,0,109.6,0,164.4c0,2-0.2,4-0.8,5.9c-2.1,7.4-8.3,11.7-17.1,11.7c-28.8,0-57.5,0-86.3,0
			c-1.1,0-2.2,0-3.3,0c0,7.9,0,15.4,0,22.9c10.5,1.2,17.4,6.5,20.2,16.6c1.3,4.8,0.7,6.9-2.5,9.2c-35.6,0-71.2,0-106.8,0
			c-2.5-1.3-3.2-3.4-2.9-6.1c0.5-5.7,2.9-10.3,7-14.1c3.8-3.5,8.5-5.1,13.7-5.5c0-7.7,0-15.2,0-22.9c-1.3,0-2.3,0-3.3,0
			c-12.8,0-25.6,0-38.3,0c-1,0-2.1,0-3.1-0.1c-2.2-0.3-3.4-1.7-3.6-3.8c-0.2-2.1,0.8-3.7,2.9-4.3c1.2-0.4,2.6-0.4,3.9-0.4
			c67.4,0,134.8,0,202.1,0c6.7,0,9.5-2.8,9.5-9.5c0-10.2,0-20.4,0-30.7c0-0.9-0.1-1.8-0.1-2.9c-89.6,0-179.1,0-268.7,0
			c0,0.9-0.1,1.6-0.1,2.4c0,10.5,0,21,0,31.5c0,6.3,2.9,9.1,9.3,9.2c8.1,0,16.3,0,24.4,0c3.1,0,4.9,1.7,4.9,4.3
			c0,2.6-1.7,4.2-4.9,4.3c-9,0-18,0.1-27-0.1c-5.8-0.1-10.2-3.1-13.1-8.2C114.2,342.7,113.6,340.7,112.9,338.9z M160.7,292
			c63.3,0,126.4,0,189.4,0c0-36.6,0-73,0-109.6c-1.4,0-2.6,0-3.8,0c-46.8,0-93.5,0-140.3,0c-1.2,0-2.5,0-3.7-0.2
			c-2.2-0.3-3.4-1.8-3.5-3.8c-0.2-2.1,0.9-3.7,3-4.3c1.3-0.3,2.6-0.4,3.9-0.4c46.9,0,93.9,0,140.8,0c1.2,0,2.4,0,3.8,0
			c0-1.2,0-2.1,0-2.9c0-15.1,0-30.3,0-45.4c0-4.8-1.4-6.2-6.3-6.2c-59,0-117.9,0-176.9,0c-5.1,0-6.4,1.4-6.4,6.4c0,15,0,30.1,0,45.1
			c0,0.9,0.1,1.8,0.1,3c3.4,0,6.6,0,9.8,0c3.3,0,6.6-0.1,9.9,0.1c2.7,0.1,4.4,2.1,4.3,4.4c-0.2,2.5-1.6,4-4.2,4.1
			c-2.2,0.1-4.4,0.1-6.5,0.1c-4.4,0-8.8,0-13.3,0C160.7,219.1,160.7,255.5,160.7,292z M151.8,161.7c-6.9,0-13.7,0-20.5,0
			c-7.1,0-9.8,2.7-9.8,9.7c0,39.2,0,78.3,0,117.5c0,1,0,2,0,3.1c10.3,0,20.3,0,30.3,0C151.8,248.6,151.8,205.3,151.8,161.7z
			 M282.6,352.9c-17.9,0-35.5,0-53.2,0c0,7.6,0,15.1,0,22.6c17.8,0,35.4,0,53.2,0C282.6,367.9,282.6,360.5,282.6,352.9z
			 M302.9,392.7c-0.4-0.9-0.5-1.5-0.8-1.9c-2.7-4.5-6.8-6.5-12.1-6.5c-22.7,0-45.4,0-68.1,0c-0.9,0-1.7,0-2.6,0.1
			c-4.9,0.6-9.3,4.2-9.9,8.3C240.5,392.7,271.5,392.7,302.9,392.7z"/>
		<path class="st1" d="M271.3,322.4c0,7.1-5.7,13.1-12.8,13.2c-7.2,0.1-13.3-5.9-13.2-13.1c0-7.1,5.9-13,13-13
			C265.4,309.4,271.3,315.3,271.3,322.4z M258.4,326.9c2.3-0.1,4.3-2.1,4.3-4.4c0-2.4-2.2-4.5-4.6-4.4c-2.3,0.1-4.2,2.2-4.1,4.5
			C254.1,324.9,256.1,326.9,258.4,326.9z"/>
		<path class="st1" d="M171.4,238.9c0-12.7,0-25.4,0-38c0-4.8,1.4-6.2,6.3-6.2c25.3,0,50.5,0,75.8,0c4.9,0,6.3,1.4,6.3,6.2
			c0,25.3,0,50.5,0,75.8c0,5-1.4,6.4-6.5,6.4c-25.2,0-50.3,0-75.5,0c-5.1,0-6.4-1.3-6.4-6.4C171.4,264.1,171.4,251.5,171.4,238.9z
			 M180.2,203.5c0,13.1,0,26,0,39c0.8-0.2,1.5-0.3,2.1-0.5c7.8-2.4,15.1-1.7,21.9,3.1c3.8,2.7,7.4,5.6,11.1,8.3
			c5.8,4.2,11.8,4.6,17.9,0.4c5.3-3.7,10.9-6.4,17.7-5.2c0-15.2,0-30,0-45.1C227.2,203.5,203.8,203.5,180.2,203.5z M180,274.2
			c23.9,0,47.3,0,71,0c0-5-0.1-9.8,0-14.5c0.1-2-0.8-2.5-2.6-2.7c-4.1-0.4-7.2,1.7-10.4,3.8c-8.7,5.8-17.6,6.3-26.5,0.4
			c-4.2-2.8-8.2-6.1-12.3-9c-5.7-4-11.7-3.6-17.7-0.6c-0.7,0.3-1.5,1.2-1.5,1.8C180,260.2,180,267.1,180,274.2z"/>
		<path class="st1" d="M190.1,161.8c-4.5,0-9.1,0-13.6,0c-4.4-0.1-6.3-3.2-4.1-7.1c4.4-7.8,8.9-15.6,13.5-23.3c2.3-3.8,6-3.8,8.2,0
			c4.5,7.7,9,15.5,13.5,23.3c2.2,3.8,0.3,7-4.1,7.1C199,161.8,194.5,161.8,190.1,161.8z M189.8,141.7c-2.2,3.8-4.3,7.4-6.5,11.3
			c4.6,0,8.7,0,13.2,0c-2-3.5-3.8-6.6-5.6-9.8C190.7,142.8,190.3,142.3,189.8,141.7z"/>
		<path class="st1" d="M267.2,142.4c-11.7,0-23.5,0-35.2,0c-0.9,0-1.9,0.1-2.8-0.1c-2.1-0.5-3.3-1.8-3.4-4c-0.1-2.3,1.1-3.8,3.3-4.3
			c1-0.2,2.1-0.2,3.1-0.2c23.3,0,46.5,0,69.8,0c0.8,0,1.5,0,2.3,0c2.5,0.2,4.1,1.9,4.1,4.2c0,2.3-1.6,4-4,4.3
			c-0.8,0.1-1.7,0.1-2.6,0.1C290.3,142.4,278.7,142.4,267.2,142.4z"/>
		<path class="st1" d="M306.3,245.1c-9.7,0-19.5,0-29.2,0c-1,0-2.1-0.1-3.1-0.3c-2.2-0.5-3.4-2-3.3-4.3c0.1-2.2,1.3-3.5,3.4-3.9
			c1-0.2,2.1-0.2,3.1-0.2c19.4,0,38.7,0,58.1,0c0.8,0,1.7,0,2.5,0.1c2.4,0.3,3.8,1.7,3.9,4.1c0.1,2.4-1.4,3.8-3.7,4.3
			c-0.9,0.2-1.9,0.2-2.8,0.2C325.6,245.1,315.9,245.1,306.3,245.1z"/>
		<path class="st1" d="M306,198.3c9.6,0,19.3,0,28.9,0c1.1,0,2.3,0,3.4,0.2c2.1,0.4,3.3,1.8,3.5,3.9c0.1,2.1-0.9,3.7-3,4.2
			c-1.1,0.3-2.2,0.4-3.4,0.4c-19.5,0-38.9,0-58.4,0c-1.2,0-2.8,0.1-3.5-0.5c-1.2-1.1-2.5-2.7-2.5-4.2c0-1.2,1.6-2.8,2.8-3.6
			c0.9-0.6,2.4-0.4,3.6-0.4C286.9,198.3,296.4,198.3,306,198.3z"/>
		<path class="st1" d="M306.1,226c-9.6,0-19.3,0-28.9,0c-0.9,0-1.9,0.1-2.8-0.1c-2.2-0.4-3.5-1.7-3.6-4c-0.1-2.3,1.2-3.7,3.4-4.3
			c1-0.2,2.1-0.2,3.1-0.2c19.4,0,38.7,0,58.1,0c0.9,0,1.9-0.1,2.8,0.1c2.3,0.5,3.7,1.9,3.6,4.3c-0.1,2.4-1.5,3.8-3.9,4.1
			c-1.4,0.1-2.8,0.1-4.2,0.1C324.4,226,315.2,226,306.1,226z"/>
		<path class="st1" d="M306,264c-10.1,0-20.2,0-30.3,0c-3.7,0-5.8-2.6-4.8-5.6c0.8-2.4,2.8-3,5.2-3c14.6,0,29.1,0,43.7,0
			c5.6,0,11.2,0,16.7,0c3.3,0,5.3,1.6,5.3,4.2c0.1,2.7-1.9,4.4-5.4,4.4C326.2,264,316.1,264,306,264z"/>
		<path class="st1" d="M246.3,160.9c-4.7,0-9.5,0-14.2,0c-1,0-2.1-0.1-3.1-0.3c-2.1-0.4-3.2-1.9-3.3-4c0-2.2,1-3.6,3.2-4.1
			c1.1-0.2,2.2-0.3,3.4-0.3c9.5,0,18.9,0,28.4,0c0.9,0,1.9,0,2.8,0.2c2.4,0.4,3.8,1.9,3.7,4.3c-0.1,2.4-1.5,3.9-3.9,4.1
			c-2,0.2-4,0.1-5.9,0.2C253.7,160.9,250,160.9,246.3,160.9z"/>
		<path class="st1" d="M289.5,274.4c4.2,0,8.3,0,12.5,0c0.8,0,1.5,0,2.3,0.1c2.4,0.3,4,1.6,4.1,4.2c0.1,2.4-1.5,4.3-4.2,4.4
			c-9.7,0.1-19.4,0.1-29.2,0c-2.8,0-4.3-1.9-4.3-4.3c0-2.4,1.5-4.1,4.4-4.2C279.9,274.3,284.7,274.4,289.5,274.4
			C289.5,274.4,289.5,274.4,289.5,274.4z"/>
		<path class="st1" d="M213.9,226.4c-0.1-7.3,5.7-13.2,13-13.4c7.2-0.1,13.2,5.9,13.3,13.1c0.1,7.3-5.8,13.3-13,13.4
			C219.9,239.6,213.9,233.7,213.9,226.4z M227,230.7c2.4,0,4.6-2.1,4.6-4.5c0-2.4-2-4.5-4.5-4.5c-2.5,0-4.5,1.9-4.5,4.4
			C222.5,228.7,224.5,230.7,227,230.7z"/>
	</g>
</g>
</svg>
