<?xml version="1.0" encoding="utf-8"?>
<!-- Generator: Adobe Illustrator 21.0.0, SVG Export Plug-In . SVG Version: 6.00 Build 0)  -->
<svg version="1.1" id="Layer_1" xmlns="http://www.w3.org/2000/svg" xmlns:xlink="http://www.w3.org/1999/xlink" x="0px" y="0px"
	 viewBox="0 0 258 96" style="enable-background:new 0 0 258 96;" xml:space="preserve">
<style type="text/css">
	.st0{fill:#1078FF;}
</style>
<g>
	<path d="M63.6,39.3H49c0.1,2.5,1.2,3.7,3.3,3.7c0.8,0,1.4-0.2,1.9-0.6c0.5-0.4,0.8-0.9,1-1.5h8.2c-0.3,1.5-0.9,2.9-1.9,4.2
		c-1,1.2-2.3,2.2-3.8,2.9c-1.5,0.7-3.2,1.1-5,1.1c-2.2,0-4.2-0.5-5.8-1.4c-1.7-0.9-3-2.2-4-3.9c-0.9-1.7-1.4-3.7-1.4-6
		c0-2.3,0.5-4.3,1.4-6c0.9-1.7,2.3-3,4-3.9c1.7-0.9,3.6-1.4,5.8-1.4c2.2,0,4.1,0.4,5.8,1.3c1.7,0.9,3,2.2,3.9,3.8
		c0.9,1.7,1.4,3.6,1.4,5.7C63.8,38.1,63.8,38.7,63.6,39.3z M55,33.5c-0.6-0.6-1.4-0.9-2.4-0.9c-1,0-1.9,0.3-2.5,0.9
		c-0.6,0.6-1,1.4-1.1,2.6H56C56,35,55.7,34.1,55,33.5z"/>
	<path d="M87.7,29.2c1.4,1.7,2.2,4,2.2,6.9V49h-7.7V37.1c0-1.3-0.3-2.3-1-3c-0.7-0.7-1.6-1.1-2.7-1.1c-1.2,0-2.1,0.4-2.8,1.1
		c-0.7,0.7-1,1.8-1,3.1V49h-7.8V26.9h7.8v3.7c0.6-1.2,1.5-2.1,2.8-2.8c1.2-0.7,2.6-1.1,4.3-1.1C84.2,26.7,86.2,27.5,87.7,29.2z"/>
</g>
<g>
	<g>
		<path d="M112.5,40.8c1.7,1.4,2.8,3.3,3.3,5.6h-7.2c-0.2-0.8-0.6-1.4-1.1-1.8c-0.6-0.4-1.3-0.6-2.1-0.6c-0.6,0-1,0.1-1.3,0.4
			c-0.3,0.2-0.5,0.6-0.5,1c0,0.6,0.3,1,1,1.2c0.6,0.3,1.7,0.6,3.2,0.9c1.7,0.4,3.1,0.8,4.2,1.2c1.1,0.4,2.1,1.1,2.9,2
			c0.8,0.9,1.2,2.2,1.2,3.8c0,1.3-0.4,2.4-1.1,3.4c-0.7,1-1.7,1.8-3.1,2.3c-1.4,0.6-2.9,0.8-4.8,0.8c-3.1,0-5.6-0.7-7.4-2
			c-1.8-1.3-3-3.3-3.3-5.7h7.4c0.1,0.8,0.5,1.4,1,1.8c0.6,0.4,1.3,0.6,2.2,0.6c0.6,0,1.1-0.1,1.4-0.4c0.3-0.3,0.5-0.6,0.5-1
			c0-0.6-0.3-1.1-1-1.4s-1.7-0.6-3.2-0.9c-1.7-0.3-3.1-0.7-4.1-1.1c-1.1-0.4-2-1.1-2.8-2c-0.8-0.9-1.2-2.2-1.2-3.8
			c0-2,0.8-3.6,2.3-4.9c1.5-1.3,3.8-1.9,6.6-1.9C108.5,38.6,110.8,39.3,112.5,40.8z"/>
		<path d="M155,41.2c1.6,1.7,2.3,4,2.3,6.9V61h-7.7V49.1c0-1.2-0.3-2.1-1-2.8c-0.7-0.7-1.5-1-2.6-1c-1.2,0-2.1,0.3-2.7,1
			c-0.7,0.7-1,1.6-1,2.9V61h-7.7V49.1c0-1.2-0.3-2.1-1-2.8c-0.7-0.7-1.5-1-2.6-1c-1.2,0-2.1,0.3-2.7,1c-0.7,0.7-1,1.6-1,2.9V61h-7.8
			V38.9h7.8v3.4c0.6-1.1,1.5-2,2.6-2.6c1.1-0.6,2.5-1,4-1c1.7,0,3.1,0.4,4.4,1.1c1.3,0.7,2.2,1.8,3,3.1c0.8-1.3,1.8-2.3,3.1-3.1
			c1.3-0.8,2.7-1.2,4.3-1.2C151.3,38.7,153.5,39.5,155,41.2z"/>
		<path d="M182.5,51.3h-14.6c0.1,2.5,1.2,3.7,3.3,3.7c0.8,0,1.4-0.2,1.9-0.6c0.5-0.4,0.8-0.9,1-1.5h8.2c-0.3,1.5-0.9,2.9-1.9,4.2
			c-1,1.2-2.3,2.2-3.8,2.9c-1.5,0.7-3.2,1.1-5,1.1c-2.2,0-4.2-0.5-5.8-1.4c-1.7-0.9-3-2.2-4-3.9c-0.9-1.7-1.4-3.7-1.4-6
			c0-2.3,0.5-4.3,1.4-6c0.9-1.7,2.3-3,4-3.9c1.7-0.9,3.6-1.4,5.8-1.4c2.2,0,4.1,0.4,5.8,1.3c1.7,0.9,3,2.2,3.9,3.8s1.4,3.6,1.4,5.7
			C182.7,50.1,182.6,50.7,182.5,51.3z M173.9,45.6c-0.6-0.6-1.4-0.9-2.4-0.9c-1,0-1.9,0.3-2.5,0.9c-0.6,0.6-1,1.4-1.1,2.6h6.9
			C174.9,47,174.6,46.1,173.9,45.6z"/>
		<path d="M198,39.6c1.1,0.7,2,1.6,2.5,2.8V31.9h7.8V61h-7.8v-3.5c-0.6,1.2-1.4,2.1-2.5,2.8c-1.1,0.7-2.5,1-4,1
			c-1.8,0-3.3-0.5-4.8-1.4c-1.4-0.9-2.5-2.2-3.3-3.9c-0.8-1.7-1.2-3.7-1.2-6c0-2.3,0.4-4.3,1.2-6c0.8-1.7,1.9-3,3.3-3.9
			c1.4-0.9,3-1.4,4.8-1.4C195.6,38.6,196.9,39,198,39.6z M193.6,46.6c-0.7,0.8-1.1,1.9-1.1,3.3c0,1.4,0.4,2.6,1.1,3.4
			c0.7,0.8,1.7,1.2,2.9,1.2c1.2,0,2.1-0.4,2.9-1.2c0.8-0.8,1.1-1.9,1.1-3.3c0-1.4-0.4-2.5-1.1-3.3c-0.8-0.8-1.7-1.2-2.9-1.2
			C195.4,45.4,194.4,45.8,193.6,46.6z"/>
		<path d="M213.2,29.9c0.8-0.7,1.9-1.1,3.3-1.1c1.4,0,2.5,0.4,3.3,1.1s1.2,1.7,1.2,2.9c0,1.1-0.4,2-1.2,2.8
			c-0.8,0.7-1.9,1.1-3.2,1.1c-1.4,0-2.5-0.4-3.3-1.1c-0.8-0.7-1.3-1.7-1.3-2.8C211.9,31.6,212.3,30.7,213.2,29.9z M220.3,38.9V61
			h-7.8V38.9H220.3z"/>
		<path d="M236.8,39.6c1.1,0.7,2,1.6,2.5,2.8v-3.5h7.7V61h-7.7v-3.5c-0.6,1.2-1.4,2.1-2.5,2.8c-1.1,0.7-2.5,1-4,1
			c-1.8,0-3.3-0.5-4.8-1.4c-1.4-0.9-2.5-2.2-3.3-3.9c-0.8-1.7-1.2-3.7-1.2-6c0-2.3,0.4-4.3,1.2-6c0.8-1.7,1.9-3,3.3-3.9
			c1.4-0.9,3-1.4,4.8-1.4C234.3,38.6,235.7,39,236.8,39.6z M232.4,46.6c-0.7,0.8-1.1,1.9-1.1,3.3c0,1.4,0.4,2.6,1.1,3.4
			c0.7,0.8,1.7,1.2,2.9,1.2c1.2,0,2.1-0.4,2.9-1.2c0.8-0.8,1.1-1.9,1.1-3.3c0-1.4-0.4-2.5-1.1-3.3c-0.8-0.8-1.7-1.2-2.9-1.2
			C234.1,45.4,233.2,45.8,232.4,46.6z"/>
	</g>
</g>
<g>
	<path class="st0" d="M23.9,61.7c-2.4-0.7-4.4-1.6-6-2.7c-1.7-1.1-2.9-2.5-3.8-4c-0.9-1.6-1.4-3.2-1.4-5c0-3.1,1.1-5.4,3.3-6.8
		c2.2-1.4,5.5-2.1,9.9-2.1h6.4c2.2,0,3.7-0.3,4.6-0.9c0.9-0.6,1.3-1.4,1.3-2.4c0-0.8-0.2-1.5-0.5-2c-0.3-0.5-0.7-1-1.3-1.5
		c-0.8,0.3-1.7,0.6-2.5,0.7c-0.8,0.1-1.6,0.2-2.4,0.2c-1.9,0-3.7-0.3-5.3-0.8c-1.7-0.5-3.1-1.3-4.3-2.3c-1.2-1-2.2-2.3-2.9-3.8
		c-0.7-1.5-1.1-3.3-1.1-5.3c0-1.3,0.2-2.4,0.6-3.5c0.4-1,0.9-1.9,1.5-2.6h-6.6v-6.2h12.9c0.7-0.2,1.6-0.5,2.5-0.6
		c0.9-0.2,1.8-0.3,2.8-0.3c1.9,0,3.7,0.3,5.4,0.8c1.7,0.6,3.2,1.4,4.5,2.5c1.3,1.1,2.3,2.5,3.1,4.1c0.8,1.6,1.2,3.4,1.2,5.5
		c0,2.1-0.5,4-1.4,5.7c-1,1.6-2,2.9-3.3,3.8v0.3c1,0.7,1.9,1.7,2.7,2.8c0.8,1.1,1.2,2.4,1.2,3.8c0,1.5-0.3,2.7-0.9,3.7
		c-0.6,1-1.4,1.8-2.3,2.3v0.3c1.7,1,2.9,2.2,3.8,3.5c0.9,1.3,1.3,2.7,1.3,4.2c0,1.6-0.4,2.9-1.1,4.1c-0.8,1.2-1.8,2.1-3.1,2.9
		c-1.3,0.8-2.9,1.4-4.7,1.8c-1.8,0.4-3.8,0.6-6,0.6C29,62.7,26.3,62.4,23.9,61.7z M37.4,55.9c1.6-0.9,2.5-2.2,2.5-3.8
		c0-1.8-0.9-3.3-2.8-4.8c-1.3,0.3-3,0.5-4.9,0.5h-4.9c-2.1,0-3.6,0.2-4.7,0.7c-1.1,0.5-1.6,1.4-1.6,2.9c0,1.6,0.9,2.9,2.7,4.1
		c1.8,1.1,4.1,1.7,7.1,1.7C33.5,57.2,35.7,56.8,37.4,55.9z M35.9,28.2c1.2-1.2,1.8-3,1.8-5.4c0-2.3-0.6-4.1-1.8-5.3
		c-1.2-1.2-2.7-1.8-4.5-1.8s-3.2,0.6-4.4,1.9c-1.2,1.2-1.8,3-1.8,5.2c0,2.3,0.6,4.1,1.8,5.4c1.2,1.2,2.7,1.9,4.4,1.9
		C33.2,30.1,34.7,29.5,35.9,28.2z"/>
</g>
<g>
	<path class="st0" d="M94.5,62.7l-0.9-8c-0.1-1.2-0.2-2.4-0.2-3.6c-0.1-1.2-0.2-2.3-0.3-3.5l-0.3-0.1c-1,0.7-1.9,1.5-2.9,2.2
		c-1,0.8-1.9,1.5-2.9,2.3l-6.7,5l-8.4-3.4L89,41.4L86,20.6l8.1,3.2l0.7,7.6c0,1.1,0.1,2.2,0.2,3.3c0.1,1.2,0.1,2.3,0.2,3.3l0.3,0.1
		c0.9-0.7,1.8-1.4,2.7-2.2c0.9-0.8,1.8-1.5,2.7-2.2l6.3-4.8l8.4,3.4L99,44.4l3.6,21.7L94.5,62.7z"/>
</g>
<g>
	<path class="st0" d="M121.5,73.8v1.3h-4.7c-0.1,0.1-0.2,0.2-0.3,0.2c-0.6,4.4-2.4,8.3-6.4,10.6c-0.3-0.3-0.8-0.6-1.2-0.9
		c3.9-2.1,5.7-5.7,6.2-10h-5.3c-0.9,1.6-2,3-3,3.9c-0.3-0.2-0.8-0.5-1.2-0.7c2.1-1.8,4.3-5.5,5.2-9.1l1.8,0.4c0,0.1-0.2,0.3-0.5,0.3
		c-0.4,1.2-1.1,2.6-1.6,3.8H121.5z M117.4,69.4c0.9,0.7,1.9,2,2.5,2.8l-0.7,0.6c-0.6-0.9-1.6-2-2.4-2.8L117.4,69.4z M120.1,68.3
		c0.9,0.7,1.9,1.9,2.5,2.8l-0.7,0.6c-0.6-0.9-1.6-2-2.4-2.8L120.1,68.3z"/>
	<path class="st0" d="M125.2,70.7c2,0.6,4.3,1.6,5.7,2.6l-0.7,1.2c-1.4-1-3.6-2-5.6-2.7L125.2,70.7z M125.1,84
		c6.8-2.1,11.3-5.9,13.6-11.2c0.4,0.3,0.8,0.6,1.2,0.8c-2.4,5.2-7.1,9.3-13.6,11.5c0,0.2-0.1,0.4-0.3,0.4L125.1,84z"/>
	<path class="st0" d="M155.5,72.8c-0.1,0.1-0.2,0.2-0.3,0.3c-2,6.2-5.2,10.2-10.4,12.9c-0.2-0.3-0.6-0.8-1-1.1
		c5-2.4,8.1-6.3,9.7-11.3h-6.8c-1.1,1.7-2.6,3.4-4.3,4.7c-0.3-0.3-0.7-0.6-1.1-0.9c2.6-2,4.8-4.9,6.1-8.3l1.8,0.5
		c-0.1,0.2-0.3,0.2-0.6,0.2c-0.4,0.8-0.8,1.6-1.2,2.4h6.7l0.2-0.1L155.5,72.8z"/>
	<path class="st0" d="M170.2,71.2c0,0.1-0.1,0.2-0.2,0.2c-1,2.4-2.3,4.5-3.8,6.6c2.1,1.7,5.2,4.5,7,6.5l-1.2,1
		c-1.7-2-4.8-4.9-6.7-6.4c-1.7,2-4.6,4.8-7.4,6.4c-0.2-0.3-0.7-0.8-1-1c5.3-2.9,9.5-8.3,11.2-12.5h-9.4v-1.3h10.1l0.2-0.1
		L170.2,71.2z"/>
	<path class="st0" d="M178.6,73.3c1.8,0.8,3.7,1.7,5.4,2.8c1.2-1.8,2.5-4.3,3.4-6.7l1.9,0.8c-0.1,0.2-0.3,0.3-0.7,0.2
		c-0.9,2-2.1,4.4-3.4,6.4c1.5,0.9,3,2,4.2,2.9l-0.9,1.2c-1.1-0.9-2.5-2-4.1-3c-2,2.8-4.8,5.7-8.1,7.8c-0.2-0.3-0.8-0.7-1.1-1
		c3.2-2.1,6.1-4.9,8-7.6c-1.7-1-3.6-2-5.4-2.8L178.6,73.3z"/>
	<path class="st0" d="M208.7,76.7h-6.3l0.3,0.1c0,0.1-0.2,0.2-0.4,0.2c-0.5,3.5-2.1,6.9-5.9,8.8c-0.2-0.2-0.7-0.7-1-0.9
		c3.8-1.9,5.1-4.8,5.5-8.2h-7.3v-1.3h15.1V76.7z M205.9,71.5h-10.6v-1.3h10.6V71.5z M206.1,68.7c0.8,0.8,1.7,2.1,2.1,3l-0.8,0.5
		c-0.4-0.9-1.3-2.2-2.1-3L206.1,68.7z M208.4,68c0.8,0.8,1.7,2.1,2.2,3l-0.8,0.5c-0.4-0.8-1.4-2.2-2.1-3L208.4,68z"/>
	<path class="st0" d="M223.1,73.7c-0.1,0.1-0.2,0.1-0.3,0.1c-0.1,0-0.2,0-0.3,0c-1.2,1.2-2.8,2.5-4.2,3.5c0.2,0.1,0.4,0.1,0.4,0.2
		c0,0.1-0.2,0.2-0.3,0.2V86h-1.2v-8c-1.6,1.1-4.2,2.7-6.3,3.7c-0.2-0.2-0.5-0.7-0.7-0.9c3.3-1.5,8.2-4.4,11.5-8L223.1,73.7z"/>
	<path class="st0" d="M241.5,70.9c0,0.1-0.2,0.1-0.2,0.2c-1,2.5-2.7,4.6-4.5,6.1c-0.3-0.2-0.8-0.6-1.2-0.8c1.8-1.3,3.2-3.1,3.8-4.7
		h-13.7v-1.3h14.4l0.2-0.1L241.5,70.9z M234,74.4c0,0.2-0.2,0.3-0.4,0.3c-0.6,4.5-2.1,8.8-6.1,11.1c-0.3-0.2-0.8-0.7-1.1-0.9
		c3.9-2.1,5.3-6.1,5.8-10.8L234,74.4z"/>
</g>
</svg>
